<svg xmlns="http://www.w3.org/2000/svg" xmlns:xlink="http://www.w3.org/1999/xlink" width="1080" zoomAndPan="magnify" viewBox="0 0 810 809.999993" height="1080" preserveAspectRatio="xMidYMid meet" version="1.0"><defs><clipPath id="39b3b434ed"><path d="M 24 35.1875 L 786 35.1875 L 786 774.6875 L 24 774.6875 Z M 24 35.1875 " clip-rule="nonzero"/></clipPath></defs><g clip-path="url(#39b3b434ed)"><path fill="#bfa36f" d="M 26.171875 247.386719 C 26.171875 247.863281 25.882812 248.390625 25.691406 248.871094 C 25.421875 249.578125 25.199219 250.296875 25.019531 251.03125 C 25.042969 251.175781 25.042969 251.316406 25.019531 251.460938 C 24.808594 252.570312 24.699219 253.691406 24.683594 254.820312 L 24.683594 755.714844 C 24.699219 756.75 24.808594 757.773438 25.019531 758.785156 C 25.019531 758.785156 25.019531 759.265625 25.019531 759.503906 C 25.019531 759.746094 25.402344 760.609375 25.546875 761.183594 C 25.703125 761.839844 25.910156 762.480469 26.171875 763.101562 C 26.246094 763.289062 26.34375 763.464844 26.457031 763.628906 C 26.902344 764.609375 27.414062 765.550781 27.992188 766.460938 L 28.328125 766.796875 C 29.070312 767.804688 29.902344 768.730469 30.824219 769.578125 C 31.167969 769.90625 31.535156 770.210938 31.925781 770.488281 C 32.667969 771.09375 33.453125 771.636719 34.277344 772.121094 L 35.570312 772.792969 C 36.5 773.222656 37.460938 773.574219 38.449219 773.847656 L 39.550781 774.183594 C 40.9375 774.53125 42.34375 774.707031 43.773438 774.710938 L 766.507812 774.710938 C 767.933594 774.707031 769.34375 774.53125 770.726562 774.183594 L 771.832031 773.847656 C 772.820312 773.574219 773.777344 773.222656 774.710938 772.792969 L 775.957031 772.121094 C 776.804688 771.648438 777.605469 771.105469 778.355469 770.488281 C 778.742188 770.210938 779.109375 769.90625 779.457031 769.578125 C 780.378906 768.730469 781.210938 767.804688 781.953125 766.796875 L 782.289062 766.460938 C 782.878906 765.554688 783.40625 764.609375 783.871094 763.628906 C 783.871094 763.628906 783.871094 763.292969 783.871094 763.101562 C 784.128906 762.480469 784.335938 761.839844 784.492188 761.183594 C 784.492188 760.609375 784.878906 760.082031 785.023438 759.503906 C 785.164062 758.929688 785.023438 759.074219 785.023438 758.832031 C 785.226562 757.804688 785.339844 756.765625 785.355469 755.714844 L 785.355469 254.820312 C 785.34375 253.691406 785.230469 252.570312 785.023438 251.460938 C 784.996094 251.316406 784.996094 251.175781 785.023438 251.03125 C 784.847656 250.3125 784.625 249.605469 784.351562 248.917969 C 784.242188 248.390625 784.082031 247.878906 783.871094 247.386719 L 783.535156 246.761719 C 783.125 245.820312 782.628906 244.921875 782.046875 244.074219 C 781.808594 243.691406 781.472656 243.453125 781.183594 243.066406 C 780.898438 242.683594 780.226562 241.867188 779.699219 241.292969 L 778.210938 240.09375 C 777.75 239.699219 777.273438 239.332031 776.773438 238.992188 C 776.238281 238.625 775.679688 238.304688 775.09375 238.03125 C 774.566406 237.792969 774.039062 237.457031 773.460938 237.214844 C 772.886719 236.976562 772.214844 236.832031 771.589844 236.640625 L 769.914062 236.160156 C 769.070312 236.03125 768.222656 235.953125 767.371094 235.921875 L 532.007812 235.921875 L 421.785156 44.78125 C 420.941406 43.320312 419.925781 41.996094 418.734375 40.804688 C 417.542969 39.613281 416.21875 38.597656 414.761719 37.753906 C 413.300781 36.910156 411.757812 36.273438 410.132812 35.835938 C 408.503906 35.398438 406.847656 35.179688 405.164062 35.179688 C 403.480469 35.179688 401.824219 35.398438 400.195312 35.835938 C 398.570312 36.273438 397.027344 36.910156 395.566406 37.753906 C 394.109375 38.597656 392.785156 39.613281 391.59375 40.804688 C 390.402344 41.996094 389.386719 43.320312 388.542969 44.78125 L 278.226562 235.730469 L 42.671875 235.730469 C 41.835938 235.761719 41.003906 235.839844 40.175781 235.96875 L 38.496094 236.449219 C 37.875 236.449219 37.203125 236.785156 36.625 237.023438 C 36.050781 237.265625 35.523438 237.601562 34.996094 237.839844 C 34.421875 238.132812 33.859375 238.449219 33.316406 238.800781 C 32.816406 239.140625 32.335938 239.507812 31.878906 239.902344 L 30.390625 241.4375 C 29.863281 242.011719 29.382812 242.636719 28.90625 243.261719 C 28.589844 243.558594 28.304688 243.875 28.042969 244.21875 C 27.488281 245.066406 26.992188 245.945312 26.554688 246.855469 Z M 405.140625 92.746094 L 482.699219 227.046875 L 327.628906 227.046875 Z M 705.113281 274.101562 L 665.972656 301.203125 L 144.546875 301.203125 L 105.214844 274.101562 Z M 747.320312 718.976562 L 691.347656 680.027344 L 691.347656 330.410156 L 747.511719 291.511719 Z M 652.972656 339.574219 L 652.972656 670.914062 L 157.546875 670.914062 L 157.546875 339.574219 Z M 144.546875 709.285156 L 665.972656 709.285156 L 705.160156 736.433594 L 105.167969 736.433594 Z M 119.367188 330.363281 L 119.367188 679.980469 L 63.007812 718.976562 L 63.007812 291.511719 Z M 119.367188 330.363281 " fill-opacity="1" fill-rule="nonzero"/></g></svg>