<svg xmlns="http://www.w3.org/2000/svg" xmlns:xlink="http://www.w3.org/1999/xlink" width="1080" zoomAndPan="magnify" viewBox="0 0 810 809.999993" height="1080" preserveAspectRatio="xMidYMid meet" version="1.0"><defs><clipPath id="d804bcc3d4"><path d="M 7 44 L 801 44 L 801 775 L 7 775 Z M 7 44 " clip-rule="nonzero"/></clipPath><clipPath id="f757c30275"><path d="M 258.203125 -229.632812 L 911.101562 161.808594 L 439.058594 949.144531 L -213.839844 557.703125 Z M 258.203125 -229.632812 " clip-rule="nonzero"/></clipPath><clipPath id="73776c929f"><path d="M 258.203125 -229.632812 L 911.101562 161.808594 L 439.058594 949.144531 L -213.839844 557.703125 Z M 258.203125 -229.632812 " clip-rule="nonzero"/></clipPath><clipPath id="d888d30f6a"><path d="M 258.203125 -229.632812 L 911.101562 161.808594 L 439.058594 949.144531 L -213.839844 557.703125 Z M 258.203125 -229.632812 " clip-rule="nonzero"/></clipPath></defs><g clip-path="url(#d804bcc3d4)"><g clip-path="url(#f757c30275)"><g clip-path="url(#73776c929f)"><g clip-path="url(#d888d30f6a)"><path fill="#bfa36f" d="M 675.640625 197.246094 C 675.71875 189.132812 679.234375 181.488281 683.511719 174.65625 C 698.601562 150.367188 725.085938 132.207031 753.71875 132.347656 C 751.421875 134.695312 748.917969 137.09375 746.625 139.441406 C 767.40625 129.914062 784.0625 111.886719 791.851562 90.316406 C 802.988281 108.695312 802.601562 132.402344 794.785156 152.535156 C 787.175781 172.617188 773.046875 189.679688 757.902344 204.894531 C 747.105469 215.800781 735.167969 226.550781 720.253906 229.839844 C 708.3125 232.613281 695.378906 231.417969 688.496094 223.390625 C 685.808594 221.074219 683.277344 218.492188 680.988281 215.523438 C 680.175781 214.503906 679.320312 213.277344 678.796875 212.074219 C 676.476562 207.671875 675.613281 202.015625 675.640625 197.246094 Z M 394.226562 487.761719 C 402.152344 479.566406 408.910156 472.445312 416.675781 464.515625 C 420.378906 460.707031 424.082031 456.894531 427.777344 453.085938 C 432.734375 448.078125 437.558594 442.988281 442.433594 438.113281 C 466.910156 413.25 488.546875 391.644531 510.519531 370.066406 C 510.675781 370.691406 511.171875 371.34375 511.746094 371.867188 L 538.292969 397.355469 C 538.867188 397.875 539.390625 398.1875 540.121094 398.453125 C 533.703125 405.597656 528.9375 410.890625 522.238281 418.222656 C 520.074219 420.652344 517.703125 423.128906 515.457031 425.683594 C 513.007812 428.292969 510.558594 430.90625 508.160156 433.71875 C 504.144531 438.050781 500.132812 442.386719 496.039062 446.847656 C 490.300781 453.160156 484.4375 459.394531 478.496094 465.761719 C 475.601562 468.8125 472.710938 471.863281 469.8125 474.921875 C 466.476562 478.414062 463.265625 481.988281 459.933594 485.484375 C 457.121094 488.410156 454.222656 491.460938 451.328125 494.511719 C 446.660156 499.339844 442.050781 504.375 437.304688 509.328125 C 433.601562 513.140625 430.996094 516.007812 427.296875 519.820312 C 424.402344 522.871094 425.003906 522.167969 422.109375 525.21875 C 419.917969 524.4375 417.75 523.316406 415.796875 522.144531 C 415.535156 521.988281 415.277344 521.832031 415.015625 521.679688 C 404.976562 515.660156 398.535156 506.296875 394.960938 496 C 394.234375 493.964844 393.609375 491.464844 393.164062 489.25 C 394.617188 487.109375 392.460938 489.535156 394.226562 487.761719 Z M 318.328125 621.164062 C 320.441406 622.070312 322.628906 622.855469 324.820312 623.636719 C 319.503906 628.960938 321.066406 627.238281 315.902344 632.296875 C 312.070312 636.03125 308.449219 639.707031 304.695312 643.308594 C 219.269531 726.667969 157.332031 780.316406 150.914062 774.167969 C 150.601562 773.800781 150.421875 773.511719 150.394531 772.96875 C 150.339844 772.757812 150.363281 772.417969 150.472656 771.949219 C 150.523438 771.273438 150.707031 770.671875 151.039062 769.8125 C 156.359375 753.847656 200.15625 699.429688 265.351562 626.453125 C 268.636719 622.75 271.917969 619.042969 275.332031 615.417969 C 280.183594 609.992188 278.300781 611.351562 283.441406 605.738281 C 285.34375 606.707031 287.453125 607.613281 289.359375 608.582031 C 298.902344 613.0625 308.601562 617.277344 318.328125 621.164062 Z M 542.804688 392.785156 L 516.257812 367.296875 C 515.683594 366.773438 515.320312 366.203125 515.03125 365.496094 C 514.460938 364.09375 514.640625 362.601562 515.523438 361.71875 L 668.003906 222.097656 C 668.808594 221.339844 670.300781 221.523438 671.316406 222.484375 L 680.835938 231.738281 C 681.847656 232.707031 682.140625 234.292969 681.324219 235.050781 L 548.097656 393.128906 C 547.261719 394.21875 545.746094 394.378906 544.289062 393.855469 C 543.902344 393.625 543.375 393.308594 542.804688 392.785156 Z M 440.132812 222.894531 C 410.453125 205.28125 397.046875 172.949219 410.132812 150.832031 C 423.21875 128.710938 458 125.089844 487.671875 142.707031 C 517.34375 160.316406 530.753906 192.648438 517.535156 214.691406 C 504.582031 236.890625 469.800781 240.507812 440.132812 222.894531 Z M 239.292969 539.550781 C 210.085938 521.15625 197.433594 488.75 211.117188 466.808594 C 224.722656 445 259.582031 442.140625 288.789062 460.539062 C 317.992188 478.933594 330.640625 511.34375 316.960938 533.28125 C 303.351562 555.085938 268.492188 557.945312 239.292969 539.550781 Z M 283.316406 169.300781 C 248.929688 166.0625 223.03125 142.738281 225.480469 117.074219 C 227.925781 91.414062 257.753906 73.296875 292.144531 76.542969 C 326.53125 79.78125 352.425781 103.113281 349.976562 128.773438 C 347.609375 154.304688 317.707031 172.550781 283.316406 169.300781 Z M 160.503906 415.539062 C 137.875 427.863281 106.140625 413.09375 89.785156 382.71875 C 73.304688 352.265625 78.410156 317.742188 100.960938 305.550781 C 123.589844 293.230469 155.324219 307.996094 171.675781 338.375 C 188.234375 368.695312 183.261719 403.296875 160.503906 415.539062 Z M 156.117188 203.507812 C 136.09375 231.578125 102.882812 242.335938 81.867188 227.429688 C 60.847656 212.527344 60.191406 177.554688 80.210938 149.488281 C 100.304688 121.285156 133.441406 110.652344 154.457031 125.558594 C 175.347656 140.386719 176.210938 175.304688 156.117188 203.507812 Z M 717.894531 474.710938 C 726.183594 446.699219 726.148438 416.894531 719.261719 388.472656 C 709.738281 348.191406 693.285156 311.191406 665.691406 271.777344 C 665.558594 271.699219 665.507812 271.496094 665.457031 271.28125 L 665.300781 271.542969 L 556.078125 401.097656 C 554.355469 403.085938 552.089844 404.207031 549.558594 404.28125 L 547.679688 406.527344 C 546.480469 407.9375 545.152344 409.265625 543.875 410.808594 C 543.433594 411.25 542.988281 411.695312 542.464844 412.269531 C 541.871094 412.972656 541.265625 413.679688 540.460938 414.433594 C 538.816406 416.289062 536.96875 418.191406 535.246094 420.175781 C 534.285156 421.191406 533.320312 422.207031 532.484375 423.304688 C 531.519531 424.324219 530.554688 425.34375 529.511719 426.492188 L 528.625 427.371094 C 526.617188 429.542969 524.613281 431.707031 522.601562 433.871094 C 520.878906 435.855469 518.957031 437.886719 517.105469 439.796875 L 511.445312 445.976562 C 508.761719 448.976562 505.945312 451.898438 503.054688 454.953125 C 496.511719 462.019531 489.886719 469.222656 483.292969 476.082031 C 486.789062 488.285156 482.644531 497.859375 475.53125 509.726562 C 474.277344 511.816406 472.894531 513.828125 471.328125 515.546875 C 459.679688 529.664062 441.140625 535.746094 423.722656 531.683594 C 423.382812 531.660156 423.257812 531.585938 422.914062 531.554688 C 420.910156 531.066406 418.980469 530.433594 417.125 529.683594 C 414.9375 528.898438 412.777344 527.78125 410.820312 526.609375 C 410.554688 526.449219 410.296875 526.292969 410.035156 526.140625 C 399.996094 520.121094 392.933594 510.917969 389.355469 500.621094 C 388.625 498.582031 388.054688 496.292969 387.738281 494.152344 C 387.191406 491.515625 386.980469 488.910156 386.851562 486.171875 C 386.664062 479.679688 387.917969 473.160156 390.367188 467.007812 C 391.144531 464.816406 392.273438 462.648438 393.523438 460.5625 C 402.359375 445.824219 415.992188 435.199219 432.105469 434.933594 C 457.550781 409.050781 482.074219 384.398438 505.152344 361.878906 L 506.402344 359.796875 C 506.691406 357.835938 507.703125 356.144531 509.113281 354.683594 L 509.765625 354.1875 L 511.300781 352.800781 L 638.335938 236.402344 C 601.828125 192.351562 556.847656 153.855469 500.914062 120.320312 C 317.347656 10.265625 108.136719 21.015625 34.082031 144.53125 C 32.835938 146.617188 31.660156 148.574219 30.542969 150.742188 C -37.046875 274.40625 52.046875 459.5625 233.011719 568.058594 C 250.21875 578.375 267.296875 587.726562 284.378906 596.195312 C 286.28125 597.15625 288.183594 598.125 290.164062 598.957031 C 292.066406 599.917969 294.179688 600.832031 296.085938 601.796875 C 305.761719 606.355469 315.539062 610.445312 325.261719 614.328125 C 327.378906 615.234375 329.566406 616.023438 331.757812 616.800781 C 333.476562 617.480469 335.066406 618.074219 336.867188 618.625 C 337.332031 618.726562 337.726562 618.960938 338.199219 619.0625 C 368.101562 630.078125 398.058594 637.753906 428.097656 641.757812 C 458.601562 645.867188 489.394531 646.234375 520.835938 642.574219 C 533.640625 641.023438 545.578125 635.59375 554.289062 626.097656 L 554.445312 625.839844 C 555.851562 624.375 557.054688 622.96875 558.328125 621.433594 C 562.078125 616.941406 565.394531 612.011719 566.878906 605.101562 C 571.148438 585.855469 571.042969 577.457031 559.308594 562.441406 C 547.441406 547.347656 532.320312 534.734375 528.382812 523.863281 C 527.492188 521.203125 521.757812 505.351562 526.1875 491.160156 C 527.386719 487.09375 529.441406 483.363281 532.570312 479.921875 C 543.730469 467.8125 562.582031 468.300781 572.019531 470.585938 C 578.507812 472.179688 587.53125 476.347656 589.386719 477.097656 C 595.378906 479.804688 599.683594 482.386719 602.550781 484.105469 C 618.015625 493.203125 622.238281 497.683594 633.761719 504.769531 C 648.734375 514.101562 656.863281 519.15625 668.414062 519.695312 C 668.414062 519.695312 680.308594 520.265625 693.050781 514.078125 C 697.019531 512.199219 700.746094 508.9375 704.082031 504.550781 C 709.371094 497.796875 714.117188 487.515625 717.894531 474.710938 " fill-opacity="1" fill-rule="nonzero"/></g></g></g></g></svg>
