<svg xmlns="http://www.w3.org/2000/svg" xmlns:xlink="http://www.w3.org/1999/xlink" width="1080" zoomAndPan="magnify" viewBox="0 0 810 809.999993" height="1080" preserveAspectRatio="xMidYMid meet" version="1.0"><defs><clipPath id="66e5035a2c"><path d="M 7 130.800781 L 804 130.800781 L 804 637.800781 L 7 637.800781 Z M 7 130.800781 " clip-rule="nonzero"/></clipPath></defs><g clip-path="url(#66e5035a2c)"><path fill="#bfa36f" d="M 646.507812 324.78125 C 636.335938 324.804688 626.261719 325.804688 616.285156 327.785156 C 597.816406 215.726562 510.503906 130.890625 405.425781 130.890625 C 300.351562 130.890625 213.039062 215.726562 194.570312 327.785156 C 191.898438 327.253906 189.214844 326.792969 186.519531 326.402344 C 183.820312 326.011719 181.117188 325.691406 178.402344 325.441406 C 175.691406 325.191406 172.972656 325.011719 170.25 324.902344 C 167.527344 324.796875 164.804688 324.757812 162.082031 324.792969 C 159.355469 324.828125 156.636719 324.933594 153.917969 325.109375 C 151.199219 325.285156 148.484375 325.53125 145.78125 325.847656 C 143.074219 326.167969 140.378906 326.554688 137.691406 327.011719 C 135.007812 327.472656 132.335938 328 129.675781 328.597656 C 127.019531 329.195312 124.378906 329.863281 121.753906 330.597656 C 119.132812 331.335938 116.527344 332.136719 113.949219 333.011719 C 111.367188 333.882812 108.808594 334.820312 106.277344 335.824219 C 103.746094 336.828125 101.238281 337.898438 98.761719 339.035156 C 96.285156 340.171875 93.84375 341.371094 91.429688 342.632812 C 89.015625 343.898438 86.636719 345.222656 84.289062 346.609375 C 81.945312 348 79.636719 349.445312 77.371094 350.953125 C 75.101562 352.460938 72.871094 354.027344 70.683594 355.652344 C 68.496094 357.277344 66.355469 358.957031 64.253906 360.695312 C 62.15625 362.429688 60.101562 364.21875 58.09375 366.0625 C 56.089844 367.90625 54.132812 369.800781 52.226562 371.746094 C 50.316406 373.691406 48.460938 375.6875 46.660156 377.726562 C 44.855469 379.769531 43.105469 381.859375 41.414062 383.992188 C 39.71875 386.125 38.082031 388.300781 36.5 390.519531 C 34.917969 392.738281 33.398438 395 31.933594 397.296875 C 30.472656 399.59375 29.070312 401.929688 27.730469 404.300781 C 26.386719 406.675781 25.109375 409.078125 23.894531 411.515625 C 22.679688 413.957031 21.527344 416.425781 20.441406 418.921875 C 19.355469 421.421875 18.332031 423.945312 17.378906 426.496094 C 16.425781 429.050781 15.535156 431.625 14.714844 434.222656 C 13.894531 436.820312 13.144531 439.4375 12.460938 442.074219 C 11.777344 444.714844 11.160156 447.367188 10.617188 450.035156 C 10.070312 452.707031 9.597656 455.386719 9.191406 458.082031 C 8.785156 460.777344 8.449219 463.476562 8.1875 466.191406 C 7.921875 468.902344 7.730469 471.617188 7.605469 474.339844 C 7.484375 477.0625 7.433594 479.785156 7.453125 482.507812 C 7.472656 485.234375 7.5625 487.957031 7.722656 490.675781 C 7.886719 493.394531 8.117188 496.109375 8.421875 498.816406 C 8.726562 501.523438 9.101562 504.222656 9.542969 506.910156 C 9.988281 509.597656 10.503906 512.273438 11.085938 514.933594 C 11.667969 517.59375 12.324219 520.238281 13.042969 522.867188 C 13.765625 525.492188 14.554688 528.101562 15.414062 530.6875 C 16.273438 533.273438 17.195312 535.832031 18.1875 538.371094 C 19.179688 540.910156 20.238281 543.417969 21.359375 545.902344 C 22.484375 548.382812 23.667969 550.835938 24.917969 553.257812 C 26.171875 555.675781 27.484375 558.0625 28.859375 560.414062 C 30.234375 562.765625 31.667969 565.082031 33.164062 567.359375 C 34.660156 569.636719 36.214844 571.871094 37.828125 574.066406 C 39.441406 576.265625 41.109375 578.417969 42.835938 580.523438 C 44.558594 582.632812 46.339844 584.695312 48.171875 586.710938 C 50.003906 588.730469 51.886719 590.695312 53.824219 592.613281 C 55.757812 594.53125 57.742188 596.398438 59.773438 598.210938 C 61.808594 600.023438 63.886719 601.785156 66.011719 603.492188 C 68.136719 605.195312 70.304688 606.84375 72.515625 608.4375 C 74.726562 610.03125 76.976562 611.5625 79.265625 613.039062 C 81.558594 614.511719 83.882812 615.929688 86.25 617.28125 C 88.613281 618.636719 91.011719 619.925781 93.445312 621.152344 C 95.875 622.382812 98.339844 623.546875 100.832031 624.644531 C 103.324219 625.746094 105.84375 626.78125 108.390625 627.75 C 110.9375 628.71875 113.507812 629.617188 116.101562 630.453125 C 118.695312 631.285156 121.308594 632.050781 123.941406 632.75 C 126.574219 633.449219 129.226562 634.078125 131.890625 634.636719 C 134.558594 635.195312 137.238281 635.683594 139.929688 636.105469 C 142.621094 636.523438 145.320312 636.871094 148.03125 637.152344 C 150.742188 637.429688 153.457031 637.636719 156.179688 637.773438 C 158.902344 637.910156 161.625 637.976562 164.347656 637.972656 L 344.628906 637.972656 L 344.628906 550.925781 C 344.628906 550.558594 344.589844 550.199219 344.519531 549.839844 C 344.449219 549.480469 344.34375 549.132812 344.203125 548.792969 C 344.0625 548.457031 343.890625 548.136719 343.6875 547.832031 C 343.484375 547.527344 343.253906 547.246094 342.996094 546.988281 C 342.738281 546.730469 342.457031 546.5 342.152344 546.296875 C 341.847656 546.09375 341.527344 545.921875 341.191406 545.78125 C 340.851562 545.640625 340.503906 545.535156 340.144531 545.464844 C 339.789062 545.394531 339.425781 545.359375 339.058594 545.359375 L 277.199219 545.359375 C 276.707031 545.363281 276.21875 545.304688 275.742188 545.179688 C 275.265625 545.058594 274.8125 544.875 274.382812 544.628906 C 273.953125 544.386719 273.5625 544.089844 273.210938 543.742188 C 272.863281 543.394531 272.5625 543.007812 272.316406 542.578125 C 272.070312 542.152344 271.882812 541.699219 271.753906 541.222656 C 271.628906 540.746094 271.566406 540.261719 271.566406 539.769531 C 271.570312 539.273438 271.636719 538.789062 271.765625 538.3125 C 271.898438 537.835938 272.089844 537.386719 272.339844 536.960938 L 400.566406 314.175781 C 400.6875 313.964844 400.824219 313.765625 400.972656 313.570312 C 401.121094 313.378906 401.28125 313.195312 401.453125 313.027344 C 401.625 312.855469 401.808594 312.695312 402 312.546875 C 402.191406 312.398438 402.394531 312.265625 402.605469 312.144531 C 402.816406 312.023438 403.03125 311.914062 403.257812 311.824219 C 403.480469 311.730469 403.710938 311.652344 403.945312 311.589844 C 404.179688 311.527344 404.417969 311.480469 404.65625 311.449219 C 404.898438 311.417969 405.140625 311.402344 405.382812 311.402344 C 405.625 311.402344 405.867188 311.417969 406.109375 311.449219 C 406.351562 311.480469 406.585938 311.527344 406.820312 311.589844 C 407.054688 311.652344 407.285156 311.730469 407.511719 311.824219 C 407.734375 311.914062 407.953125 312.023438 408.164062 312.144531 C 408.375 312.265625 408.574219 312.398438 408.769531 312.546875 C 408.960938 312.695312 409.144531 312.855469 409.316406 313.027344 C 409.488281 313.195312 409.648438 313.378906 409.792969 313.570312 C 409.941406 313.765625 410.078125 313.964844 410.199219 314.175781 L 538.871094 536.960938 C 539.121094 537.386719 539.3125 537.835938 539.441406 538.3125 C 539.574219 538.789062 539.640625 539.273438 539.640625 539.769531 C 539.644531 540.261719 539.582031 540.746094 539.453125 541.222656 C 539.328125 541.699219 539.140625 542.152344 538.894531 542.578125 C 538.644531 543.007812 538.347656 543.394531 537.996094 543.742188 C 537.644531 544.089844 537.257812 544.386719 536.828125 544.628906 C 536.398438 544.875 535.945312 545.058594 535.464844 545.179688 C 534.988281 545.304688 534.503906 545.363281 534.007812 545.359375 L 472.148438 545.359375 C 471.785156 545.359375 471.421875 545.394531 471.0625 545.464844 C 470.703125 545.535156 470.355469 545.640625 470.019531 545.78125 C 469.679688 545.921875 469.359375 546.09375 469.054688 546.296875 C 468.75 546.5 468.46875 546.730469 468.210938 546.988281 C 467.953125 547.246094 467.722656 547.527344 467.519531 547.832031 C 467.316406 548.136719 467.144531 548.457031 467.003906 548.792969 C 466.867188 549.132812 466.757812 549.480469 466.6875 549.839844 C 466.617188 550.199219 466.582031 550.558594 466.582031 550.925781 L 466.582031 637.972656 L 646.859375 637.972656 C 649.425781 637.972656 651.984375 637.910156 654.542969 637.78125 C 657.105469 637.65625 659.660156 637.46875 662.210938 637.21875 C 664.761719 636.964844 667.304688 636.652344 669.839844 636.277344 C 672.375 635.902344 674.898438 635.460938 677.410156 634.960938 C 679.925781 634.460938 682.425781 633.902344 684.910156 633.277344 C 687.398438 632.65625 689.867188 631.972656 692.320312 631.230469 C 694.769531 630.484375 697.203125 629.679688 699.617188 628.816406 C 702.03125 627.953125 704.421875 627.03125 706.789062 626.050781 C 709.15625 625.070312 711.496094 624.03125 713.816406 622.9375 C 716.132812 621.839844 718.417969 620.6875 720.679688 619.480469 C 722.941406 618.273438 725.167969 617.011719 727.367188 615.691406 C 729.566406 614.375 731.730469 613.003906 733.859375 611.582031 C 735.992188 610.15625 738.085938 608.679688 740.144531 607.15625 C 742.203125 605.628906 744.222656 604.050781 746.203125 602.425781 C 748.1875 600.800781 750.125 599.125 752.023438 597.40625 C 753.921875 595.683594 755.777344 593.917969 757.589844 592.105469 C 759.402344 590.292969 761.171875 588.4375 762.890625 586.539062 C 764.613281 584.640625 766.285156 582.699219 767.910156 580.71875 C 769.539062 578.738281 771.113281 576.71875 772.640625 574.660156 C 774.167969 572.601562 775.640625 570.507812 777.066406 568.375 C 778.488281 566.246094 779.859375 564.082031 781.179688 561.882812 C 782.496094 559.683594 783.757812 557.453125 784.964844 555.195312 C 786.175781 552.933594 787.328125 550.644531 788.421875 548.328125 C 789.519531 546.011719 790.554688 543.671875 791.535156 541.300781 C 792.515625 538.933594 793.441406 536.542969 794.304688 534.132812 C 795.167969 531.71875 795.96875 529.285156 796.714844 526.832031 C 797.457031 524.378906 798.140625 521.910156 798.765625 519.425781 C 799.386719 516.941406 799.949219 514.441406 800.449219 511.925781 C 800.949219 509.414062 801.386719 506.886719 801.761719 504.351562 C 802.136719 501.816406 802.453125 499.277344 802.703125 496.726562 C 802.953125 494.175781 803.144531 491.621094 803.269531 489.058594 C 803.394531 486.5 803.457031 483.9375 803.457031 481.375 C 803.457031 478.8125 803.394531 476.25 803.269531 473.691406 C 803.144531 471.132812 802.953125 468.578125 802.703125 466.027344 C 802.453125 463.476562 802.136719 460.933594 801.761719 458.398438 C 801.386719 455.863281 800.949219 453.339844 800.449219 450.824219 C 799.949219 448.3125 799.386719 445.8125 798.765625 443.324219 C 798.140625 440.839844 797.457031 438.371094 796.714844 435.917969 C 795.96875 433.464844 795.167969 431.035156 794.304688 428.621094 C 793.441406 426.207031 792.515625 423.816406 791.535156 421.449219 C 790.554688 419.082031 789.519531 416.738281 788.421875 414.421875 C 787.328125 412.105469 786.175781 409.816406 784.964844 407.558594 C 783.757812 405.296875 782.496094 403.066406 781.179688 400.871094 C 779.859375 398.671875 778.488281 396.507812 777.066406 394.375 C 775.640625 392.246094 774.167969 390.148438 772.640625 388.089844 C 771.113281 386.035156 769.539062 384.011719 767.910156 382.03125 C 766.285156 380.050781 764.613281 378.113281 762.890625 376.210938 C 761.171875 374.3125 759.402344 372.457031 757.589844 370.644531 C 755.777344 368.832031 753.921875 367.066406 752.023438 365.347656 C 750.125 363.625 748.1875 361.953125 746.203125 360.324219 C 744.222656 358.699219 742.203125 357.125 740.144531 355.597656 C 738.085938 354.070312 735.992188 352.59375 733.859375 351.171875 C 731.730469 349.746094 729.566406 348.375 727.367188 347.058594 C 725.167969 345.742188 722.941406 344.480469 720.679688 343.269531 C 718.417969 342.0625 716.132812 340.910156 713.8125 339.816406 C 711.496094 338.71875 709.15625 337.679688 706.789062 336.699219 C 704.421875 335.71875 702.03125 334.796875 699.617188 333.933594 C 697.203125 333.070312 694.769531 332.265625 692.320312 331.523438 C 689.867188 330.777344 687.398438 330.09375 684.910156 329.472656 C 682.425781 328.851562 679.925781 328.289062 677.410156 327.789062 C 674.898438 327.289062 672.375 326.851562 669.839844 326.476562 C 667.304688 326.097656 664.761719 325.785156 662.210938 325.535156 C 659.660156 325.28125 657.105469 325.09375 654.542969 324.96875 C 651.984375 324.84375 649.425781 324.78125 646.859375 324.78125 Z M 646.507812 324.78125 " fill-opacity="1" fill-rule="nonzero"/></g></svg>